<svg width="18mm" height="18mm" version="1.1" viewBox="0 0 18 18" xml:space="preserve" xmlns="http://www.w3.org/2000/svg"><g transform="matrix(2.8571 0 0 2.8571 -174.91 -225.73)" fill="#f00"><rect x="61.323" y="79.157" width="6" height="6" ry="1.041" fill="#f00" stroke="#000" stroke-linecap="square" stroke-linejoin="round" stroke-width=".3"/></g><path d="m8.6782 16.787c-0.62894-0.08637-1.1226-0.58308-1.2066-1.2141-0.0064-0.0483-0.01177-0.11317-0.01186-0.14416l-1.53e-4 -0.05634h-6.2098v-0.6667c0-0.5235 2e-3 -0.66843 0.0104-0.67476 6e-3 -0.0044 0.13438-0.04968 0.28587-0.10055 0.39975-0.13422 0.58648-0.20895 0.83047-0.33233 0.44846-0.22677 0.78742-0.51951 1.043-0.90071 0.34875-0.52015 0.5431-1.1753 0.64251-2.1659 0.05673-0.56538 0.08191-1.0802 0.12143-2.4831 0.0493-1.7503 0.11416-2.5334 0.26753-3.2301 0.25473-1.1572 0.80449-1.8116 1.7903-2.1311 0.33431-0.10837 0.75839-0.18779 1.3434-0.25158 0.08952-0.0098 0.17121-0.01951 0.18154-0.02167l0.01878-0.0039v-1.21h2.2535l0.0021 0.61114 0.0021 0.61114 0.12937 0.01458c0.9462 0.10661 1.4802 0.25007 1.9251 0.51719 0.61529 0.3694 0.99278 0.95981 1.1919 1.8641 0.15337 0.69668 0.21823 1.4798 0.26753 3.2301 0.03952 1.4029 0.06469 1.9177 0.12143 2.4831 0.12266 1.2223 0.40119 1.977 0.92991 2.5196 0.22241 0.22824 0.44764 0.39129 0.75563 0.54703 0.24401 0.12338 0.43073 0.1981 0.83047 0.33233 0.15149 0.05087 0.28013 0.09611 0.28587 0.10055 0.0082 0.0063 0.01043 0.15126 0.01043 0.67476v0.6667h-6.2098l-1.54e-4 0.05634c-5.38e-4 0.18518-0.06025 0.41775-0.15493 0.60338-0.27096 0.53126-0.8556 0.83623-1.4474 0.75493z" stroke-width=".0083462"/></svg>
